<svg width="27" height="27" viewBox="0 0 27 27" fill="none" xmlns="http://www.w3.org/2000/svg">
<path d="M24.4952 0.000278688C24.0887 0.0122339 23.7062 0.179606 23.4252 0.472509L13.0302 10.8675L2.63515 0.472509C2.34524 0.176618 1.95072 0.00924544 1.53528 0.00924544C0.913609 0.00924544 0.354705 0.388821 0.121578 0.965659C-0.114537 1.5425 0.0259372 2.20302 0.471268 2.63639L10.8663 13.0314L0.471268 23.4265C0.0707693 23.809 -0.0906262 24.3799 0.0498474 24.9179C0.190321 25.4529 0.608752 25.8713 1.14375 26.0118C1.68173 26.1522 2.25259 25.9908 2.63515 25.5903L13.0302 15.1953L23.4252 25.5903C23.8078 25.9908 24.3786 26.1522 24.9166 26.0118C25.4516 25.8713 25.87 25.4529 26.0105 24.9179C26.151 24.3799 25.9896 23.809 25.5891 23.4265L15.1941 13.0314L25.5891 2.63639C26.0434 2.20003 26.1869 1.52755 25.9418 0.944738C25.6997 0.361923 25.1258 -0.0116765 24.4952 0.000278688Z" fill="#829595"/>
</svg>
