<svg width="23" height="23" viewBox="0 0 23 23" fill="none" xmlns="http://www.w3.org/2000/svg">
<circle cx="11.5" cy="11.5" r="11.5" fill="white"/>
<path fill-rule="evenodd" clip-rule="evenodd" d="M16.7853 6.26182C16.389 5.86555 15.7465 5.86555 15.3502 6.26182L11.5235 10.0886L7.69665 6.2618C7.30038 5.86553 6.6579 5.86553 6.26164 6.2618C5.86537 6.65807 5.86537 7.30055 6.26164 7.69681L10.0884 11.5236L6.26184 15.3502C5.86557 15.7465 5.86557 16.389 6.26184 16.7852C6.65811 17.1815 7.30058 17.1815 7.69685 16.7852L11.5235 12.9586L15.35 16.7852C15.7463 17.1815 16.3888 17.1815 16.785 16.7852C17.1813 16.3889 17.1813 15.7465 16.785 15.3502L12.9585 11.5236L16.7853 7.69683C17.1815 7.30056 17.1815 6.65808 16.7853 6.26182Z" fill="#829595"/>
</svg>
