<svg width="28" height="28" viewBox="0 0 28 28" fill="none" xmlns="http://www.w3.org/2000/svg">
<g id="google">
<path id="vector" d="M26.2519 14.2721C26.2519 13.2649 26.1685 12.5299 25.9881 11.7677H14.252V16.3138H21.1408C21.0019 17.4435 20.2519 19.1449 18.5853 20.2882L18.5619 20.4404L22.2726 23.2576L22.5297 23.2827C24.8908 21.1457 26.2519 18.0015 26.2519 14.2721Z" fill="#4285F4"/>
<path id="vector_2" d="M14.2506 26.25C17.6256 26.25 20.4589 25.1611 22.5284 23.2828L18.5839 20.2883C17.5284 21.0097 16.1117 21.5133 14.2506 21.5133C10.9451 21.5133 8.13959 19.3764 7.1395 16.4227L6.99291 16.4349L3.13444 19.3614L3.08398 19.4988C5.13951 23.5005 9.36173 26.25 14.2506 26.25Z" fill="#34A853"/>
<path id="vector_3" d="M7.14078 16.4227C6.8769 15.6605 6.72418 14.8438 6.72418 13.9999C6.72418 13.156 6.8769 12.3394 7.1269 11.5771L7.11991 11.4148L3.21308 8.44141L3.08525 8.50099C2.23807 10.1616 1.75195 12.0263 1.75195 13.9999C1.75195 15.9735 2.23807 17.8382 3.08525 19.4988L7.14078 16.4227Z" fill="#FBBC05"/>
<path id="vector_4" d="M14.2507 6.48663C16.5979 6.48663 18.1812 7.48024 19.084 8.31058L22.6118 4.935C20.4452 2.96139 17.6257 1.75 14.2507 1.75C9.36176 1.75 5.13952 4.49942 3.08398 8.50106L7.12564 11.5772C8.13962 8.62361 10.9452 6.48663 14.2507 6.48663Z" fill="#EB4335"/>
</g>
</svg>
