<svg width="45" height="45" viewBox="0 0 45 45" fill="none" xmlns="http://www.w3.org/2000/svg">
<path d="M22.5 11.25C24.5625 11.25 26.25 12.9375 26.25 15C26.25 17.0625 24.5625 18.75 22.5 18.75C20.4375 18.75 18.75 17.0625 18.75 15C18.75 12.9375 20.4375 11.25 22.5 11.25ZM22.5 28.125C27.5625 28.125 33.375 30.5438 33.75 31.875V33.75H11.25V31.8938C11.625 30.5438 17.4375 28.125 22.5 28.125ZM22.5 7.5C18.3562 7.5 15 10.8562 15 15C15 19.1438 18.3562 22.5 22.5 22.5C26.6438 22.5 30 19.1438 30 15C30 10.8562 26.6438 7.5 22.5 7.5ZM22.5 24.375C17.4937 24.375 7.5 26.8875 7.5 31.875V37.5H37.5V31.875C37.5 26.8875 27.5063 24.375 22.5 24.375Z" fill="#2F4F4F"/>
</svg>
