<svg width="40" height="39" viewBox="0 0 40 39" fill="none" xmlns="http://www.w3.org/2000/svg">
<path d="M22.8792 17.7236L29.0017 25.7796H9.66741L14.501 19.496L17.8845 23.8462L22.5569 17.7236H22.8792ZM13.6954 17.7236C14.9843 17.7236 16.1122 16.5958 16.1122 15.3069C16.1122 14.0179 14.9843 12.8901 13.6954 12.8901C12.4064 12.8901 11.2786 14.0179 11.2786 15.3069C11.2786 16.5958 12.4064 17.7236 13.6954 17.7236ZM35.4464 9.66769V29.002C35.4464 30.7743 33.9964 32.2243 32.2241 32.2243H6.44504C4.67273 32.2243 3.22266 30.7743 3.22266 29.002V9.66769C3.22266 7.89538 4.67273 6.44531 6.44504 6.44531H32.2241C33.9964 6.44531 35.4464 7.89538 35.4464 9.66769ZM32.2241 14.179V9.66769H6.44504V29.002H32.2241V14.179Z" fill="#8A8A8A"/>
<circle cx="32.6667" cy="30.0007" r="7.33272" fill="#5D6C6F"/>
<path fill-rule="evenodd" clip-rule="evenodd" d="M32.0009 34.2818C32.0009 34.7516 32.3817 35.1324 32.8515 35.1324C33.3212 35.1324 33.7021 34.7516 33.7021 34.2818V30.6667H37.317C37.7868 30.6667 38.1676 30.2858 38.1676 29.8161C38.1676 29.3463 37.7868 28.9655 37.317 28.9655H33.7021V25.3506C33.7021 24.8808 33.3212 24.5 32.8515 24.5C32.3817 24.5 32.0009 24.8808 32.0009 25.3506V28.9655H28.3858C27.916 28.9655 27.5352 29.3463 27.5352 29.8161C27.5352 30.2858 27.916 30.6667 28.3858 30.6667H32.0009V34.2818Z" fill="#D9D9D9"/>
</svg>
