<svg width="238" height="238" viewBox="0 0 238 238" fill="none" xmlns="http://www.w3.org/2000/svg">
<g id="people_outline">
<path id="Vector" d="M89.2497 136.354C66.0447 136.354 19.833 147.957 19.833 171.063V188.417H158.666V171.063C158.666 147.957 112.455 136.354 89.2497 136.354ZM43.038 168.583C51.368 162.832 71.4988 156.188 89.2497 156.188C107.001 156.188 127.131 162.832 135.461 168.583H43.038ZM89.2497 119C108.389 119 123.958 103.431 123.958 84.2917C123.958 65.1525 108.389 49.5833 89.2497 49.5833C70.1105 49.5833 54.5413 65.1525 54.5413 84.2917C54.5413 103.431 70.1105 119 89.2497 119ZM89.2497 69.4167C97.4805 69.4167 104.125 76.0608 104.125 84.2917C104.125 92.5225 97.4805 99.1667 89.2497 99.1667C81.0188 99.1667 74.3747 92.5225 74.3747 84.2917C74.3747 76.0608 81.0188 69.4167 89.2497 69.4167ZM159.063 136.949C170.566 145.279 178.5 156.386 178.5 171.063V188.417H218.166V171.063C218.166 151.031 183.458 139.627 159.063 136.949ZM148.75 119C167.889 119 183.458 103.431 183.458 84.2917C183.458 65.1525 167.889 49.5833 148.75 49.5833C143.395 49.5833 138.436 50.8725 133.875 53.0542C140.122 61.88 143.791 72.6892 143.791 84.2917C143.791 95.8942 140.122 106.703 133.875 115.529C138.436 117.711 143.395 119 148.75 119Z" fill="#829595"/>
</g>
</svg>
