<svg width="11" height="22" viewBox="0 0 11 22" fill="none" xmlns="http://www.w3.org/2000/svg">
<path d="M1.56554 0.293043L10.7312 10.2925C10.8164 10.3854 10.884 10.4957 10.9301 10.6171C10.9763 10.7385 11 10.8686 11 11C11 11.1314 10.9763 11.2615 10.9301 11.3829C10.884 11.5043 10.8164 11.6146 10.7312 11.7075L1.56554 21.707C1.39356 21.8946 1.1603 22 0.917074 22C0.673851 22 0.440589 21.8946 0.268604 21.707C0.0966195 21.5193 -3.20487e-08 21.2648 -4.36165e-08 20.9995C-5.51843e-08 20.7341 0.0966194 20.4797 0.268604 20.292L8.78692 11L0.268603 1.70797C0.183445 1.61507 0.115894 1.50477 0.0698068 1.38338C0.0237195 1.262 -9.09734e-07 1.1319 -9.15462e-07 1.00051C-9.21189e-07 0.86912 0.0237195 0.739016 0.0698067 0.617628C0.115894 0.496241 0.183445 0.385948 0.268603 0.293043C0.353761 0.200138 0.454859 0.12644 0.566124 0.0761604C0.677388 0.0258808 0.796641 -3.49157e-08 0.917073 -4.01941e-08C1.0375 -4.54725e-08 1.15676 0.0258808 1.26802 0.0761604C1.37929 0.12644 1.48038 0.200138 1.56554 0.293043Z" fill="#2F4F4F"/>
</svg>
