<svg width="20" height="8" viewBox="0 0 20 8" fill="none" xmlns="http://www.w3.org/2000/svg">
<path d="M18.7972 1.13149L10.1381 7.75591C10.0577 7.8175 9.96219 7.86636 9.85707 7.8997C9.75195 7.93303 9.63927 7.95019 9.52548 7.95019C9.41168 7.95019 9.29901 7.93303 9.19389 7.8997C9.08877 7.86636 8.99327 7.8175 8.91285 7.75591L0.25376 1.13149C0.0912801 1.00719 2.46991e-10 0.838598 1.95216e-10 0.66281C1.43442e-10 0.487022 0.0912801 0.318433 0.25376 0.194132C0.416239 0.0698312 0.636609 0 0.86639 0C1.09617 0 1.31654 0.0698312 1.47902 0.194132L9.52548 6.3507L17.5719 0.194132C17.6524 0.132585 17.7479 0.0837625 17.853 0.0504531C17.9581 0.0171438 18.0708 0 18.1846 0C18.2983 0 18.411 0.0171438 18.5161 0.0504531C18.6212 0.0837625 18.7167 0.132585 18.7972 0.194132C18.8776 0.25568 18.9415 0.328748 18.985 0.409164C19.0285 0.489579 19.051 0.575769 19.051 0.66281C19.051 0.749852 19.0285 0.836041 18.985 0.916457C18.9415 0.996873 18.8776 1.06994 18.7972 1.13149Z" fill="black"/>
</svg>
