<svg width="19" height="20" viewBox="0 0 19 20" fill="none" xmlns="http://www.w3.org/2000/svg">
<path d="M15.8579 8.04504L9.92041 13.9825C9.86526 14.0377 9.79978 14.0815 9.7277 14.1114C9.65562 14.1413 9.57836 14.1567 9.50033 14.1567C9.4223 14.1567 9.34504 14.1413 9.27296 14.1114C9.20088 14.0815 9.1354 14.0377 9.08025 13.9825L3.14275 8.04504C3.03134 7.93363 2.96875 7.78252 2.96875 7.62496C2.96875 7.4674 3.03134 7.3163 3.14275 7.20489C3.25416 7.09347 3.40527 7.03088 3.56283 7.03088C3.72039 7.03088 3.8715 7.09347 3.98291 7.20489L9.50033 12.7231L15.0178 7.20489C15.0729 7.14972 15.1384 7.10596 15.2105 7.07611C15.2826 7.04625 15.3598 7.03088 15.4378 7.03088C15.5158 7.03088 15.5931 7.04625 15.6652 7.07611C15.7373 7.10596 15.8027 7.14972 15.8579 7.20489C15.9131 7.26005 15.9568 7.32554 15.9867 7.39762C16.0165 7.4697 16.0319 7.54695 16.0319 7.62496C16.0319 7.70298 16.0165 7.78023 15.9867 7.85231C15.9568 7.92439 15.9131 7.98988 15.8579 8.04504Z" fill="black"/>
</svg>
